<mxfile host="65bd71144e" scale="1" border="0" disableSvgWarning="true">
    <diagram id="xN4n5JaW_2JlaDlb-YvB" name="第 1 页">
        <mxGraphModel dx="1776" dy="596" grid="1" gridSize="10" guides="1" tooltips="1" connect="1" arrows="1" fold="1" page="1" pageScale="1" pageWidth="827" pageHeight="1169" background="none" math="0" shadow="0">
            <root>
                <mxCell id="0"/>
                <mxCell id="1" style="" parent="0"/>
                <mxCell id="6" value="" style="edgeStyle=orthogonalEdgeStyle;rounded=0;orthogonalLoop=1;jettySize=auto;" parent="1" source="2" target="5" edge="1">
                    <mxGeometry relative="1" as="geometry"/>
                </mxCell>
                <mxCell id="2" value="开始" style="strokeWidth=2;shape=mxgraph.flowchart.terminator;" parent="1" vertex="1">
                    <mxGeometry x="-390" y="140" width="100" height="60" as="geometry"/>
                </mxCell>
                <mxCell id="8" value="" style="edgeStyle=orthogonalEdgeStyle;rounded=0;orthogonalLoop=1;jettySize=auto;" parent="1" source="5" target="7" edge="1">
                    <mxGeometry relative="1" as="geometry"/>
                </mxCell>
                <mxCell id="5" value="读取样本数据" style="rounded=1;absoluteArcSize=1;arcSize=14;strokeWidth=2;" parent="1" vertex="1">
                    <mxGeometry x="-390" y="250" width="100" height="100" as="geometry"/>
                </mxCell>
                <mxCell id="10" value="" style="edgeStyle=orthogonalEdgeStyle;rounded=0;orthogonalLoop=1;jettySize=auto;" parent="1" source="7" target="9" edge="1">
                    <mxGeometry relative="1" as="geometry"/>
                </mxCell>
                <mxCell id="7" value="随机选取k&#10;个聚类中心点" style="rounded=1;absoluteArcSize=1;arcSize=14;strokeWidth=2;" parent="1" vertex="1">
                    <mxGeometry x="-390" y="400" width="100" height="100" as="geometry"/>
                </mxCell>
                <mxCell id="35" value="" style="edgeStyle=orthogonalEdgeStyle;rounded=0;orthogonalLoop=1;jettySize=auto;" parent="1" source="9" target="19" edge="1">
                    <mxGeometry relative="1" as="geometry"/>
                </mxCell>
                <mxCell id="9" value="取出一个样本并&#10;计算到每个聚类&#10;中心的距离" style="rounded=1;absoluteArcSize=1;arcSize=14;strokeWidth=2;align=center;" parent="1" vertex="1">
                    <mxGeometry x="-390" y="580" width="100" height="100" as="geometry"/>
                </mxCell>
                <mxCell id="36" value="" style="edgeStyle=orthogonalEdgeStyle;rounded=0;orthogonalLoop=1;jettySize=auto;" parent="1" source="19" target="20" edge="1">
                    <mxGeometry relative="1" as="geometry"/>
                </mxCell>
                <mxCell id="19" value="某个聚类中心距离&#10;样本最近，则样本&#10;归属于该聚类中心" style="rounded=1;absoluteArcSize=1;arcSize=14;strokeWidth=2;" parent="1" vertex="1">
                    <mxGeometry x="-390" y="740" width="100" height="100" as="geometry"/>
                </mxCell>
                <mxCell id="25" value="" style="edgeStyle=orthogonalEdgeStyle;rounded=0;orthogonalLoop=1;jettySize=auto;" parent="1" source="20" target="24" edge="1">
                    <mxGeometry relative="1" as="geometry"/>
                </mxCell>
                <mxCell id="37" value="" style="edgeStyle=orthogonalEdgeStyle;rounded=0;orthogonalLoop=1;jettySize=auto;exitX=1;exitY=0.5;exitDx=0;exitDy=0;exitPerimeter=0;" parent="1" source="20" edge="1">
                    <mxGeometry relative="1" as="geometry">
                        <mxPoint x="-340" y="710" as="targetPoint"/>
                        <Array as="points">
                            <mxPoint x="-220" y="930"/>
                            <mxPoint x="-220" y="710"/>
                            <mxPoint x="-340" y="710"/>
                        </Array>
                    </mxGeometry>
                </mxCell>
                <mxCell id="20" value="样本是否&#10;全部取出?" style="strokeWidth=2;shape=mxgraph.flowchart.decision;align=center;" parent="1" vertex="1">
                    <mxGeometry x="-390" y="880" width="100" height="100" as="geometry"/>
                </mxCell>
                <mxCell id="23" value="否" style="text;strokeColor=none;fillColor=none;align=center;verticalAlign=middle;rounded=0;" parent="1" vertex="1">
                    <mxGeometry x="-280" y="910" width="40" height="20" as="geometry"/>
                </mxCell>
                <mxCell id="28" value="" style="edgeStyle=orthogonalEdgeStyle;rounded=0;orthogonalLoop=1;jettySize=auto;" parent="1" source="24" target="27" edge="1">
                    <mxGeometry relative="1" as="geometry"/>
                </mxCell>
                <mxCell id="24" value="计算每一类样本&#10;的均值，将均值&#10;作为新的聚类中心" style="rounded=1;absoluteArcSize=1;arcSize=14;strokeWidth=2;" parent="1" vertex="1">
                    <mxGeometry x="-390" y="1040" width="100" height="100" as="geometry"/>
                </mxCell>
                <mxCell id="26" value="是" style="text;strokeColor=none;fillColor=none;align=center;verticalAlign=middle;rounded=0;direction=south;" parent="1" vertex="1">
                    <mxGeometry x="-360" y="990" width="20" height="40" as="geometry"/>
                </mxCell>
                <mxCell id="32" value="" style="edgeStyle=orthogonalEdgeStyle;rounded=0;orthogonalLoop=1;jettySize=auto;exitX=0;exitY=0.5;exitDx=0;exitDy=0;exitPerimeter=0;" parent="1" source="27" edge="1">
                    <mxGeometry relative="1" as="geometry">
                        <mxPoint x="-340" y="540" as="targetPoint"/>
                        <Array as="points">
                            <mxPoint x="-480" y="1240"/>
                            <mxPoint x="-480" y="540"/>
                            <mxPoint x="-340" y="540"/>
                        </Array>
                    </mxGeometry>
                </mxCell>
                <mxCell id="39" value="" style="edgeStyle=orthogonalEdgeStyle;rounded=0;orthogonalLoop=1;jettySize=auto;" parent="1" source="27" target="38" edge="1">
                    <mxGeometry relative="1" as="geometry">
                        <Array as="points">
                            <mxPoint x="-340" y="1310"/>
                            <mxPoint x="-340" y="1310"/>
                        </Array>
                    </mxGeometry>
                </mxCell>
                <mxCell id="27" value="是否达到&#10;迭代次数?" style="strokeWidth=2;shape=mxgraph.flowchart.decision;" parent="1" vertex="1">
                    <mxGeometry x="-390" y="1190" width="100" height="100" as="geometry"/>
                </mxCell>
                <mxCell id="33" value="否" style="text;strokeColor=none;fillColor=none;align=center;verticalAlign=middle;rounded=0;" parent="1" vertex="1">
                    <mxGeometry x="-450" y="1220" width="40" height="20" as="geometry"/>
                </mxCell>
                <mxCell id="38" value="结束" style="strokeWidth=2;shape=mxgraph.flowchart.terminator;" parent="1" vertex="1">
                    <mxGeometry x="-390" y="1350" width="100" height="60" as="geometry"/>
                </mxCell>
                <mxCell id="40" value="是" style="text;strokeColor=none;fillColor=none;align=center;verticalAlign=middle;rounded=0;direction=south;" parent="1" vertex="1">
                    <mxGeometry x="-360" y="1300" width="20" height="40" as="geometry"/>
                </mxCell>
            </root>
        </mxGraphModel>
    </diagram>
</mxfile>